Coordinates
version=1
nRows=19
nColumns=36
inDegrees=yes

Units are S.I. units (second, meters, Newtons, ...)
If the header above contains a line with 'inDegrees', this indicates whether rotational values are in degrees (yes) or radians (no).

endheader
time	pelvis_tilt	pelvis_list	pelvis_rotation	pelvis_tx	pelvis_ty	pelvis_tz	hip_flexion_r	hip_adduction_r	hip_rotation_r	knee_angle_r	knee_angle_r_beta	ankle_angle_r	subtalar_angle_r	mtp_angle_r	hip_flexion_l	hip_adduction_l	hip_rotation_l	knee_angle_l	knee_angle_l_beta	ankle_angle_l	subtalar_angle_l	mtp_angle_l	lumbar_extension	lumbar_bending	lumbar_rotation	arm_flex_r	arm_add_r	arm_rot_r	elbow_flex_r	pro_sup_r	arm_flex_l	arm_add_l	arm_rot_l	elbow_flex_l	pro_sup_l
      0.00000000	     -3.32260179	     -1.95509251	      6.30109258	      1.31141149	      0.95486200	      0.14196939	      5.85285558	     -4.54384417	     -5.67142938	      3.52288593	      0.06148596	     -0.30042007	      0.01200608	     -6.51502467	     -0.21920696	     -5.62936734	      0.04376736	      2.32501171	      0.04057911	     10.86909833	      0.40670269	     -6.51502467	      9.39937572	      0.40345695	     -6.26263193	     25.41841056	      3.77872343	     33.10802530	     97.21209668	     81.68260891	     35.48950260	      5.19266442	     72.18981997	    113.47645811	     87.43466498
      0.01666670	     -4.25322751	     -1.70961295	      5.00146567	      1.31423250	      0.95135394	      0.14159643	      7.50300887	     -5.00426038	     -3.72616556	      4.41821015	      0.07711231	      1.12379885	      0.30127121	     -6.84884421	      0.73736924	     -5.47235215	     -0.86516701	      3.47295096	      0.06061443	     10.97728562	     -0.06076770	     -6.84884421	     11.14246733	      0.54393524	     -5.69095919	     25.98453030	     -0.26057252	     38.40333226	    101.86665929	     87.06657743	     35.74458756	      3.57687818	     68.58660949	    117.02397056	     96.72261113
      0.03333330	     -4.96926562	     -1.74360521	      4.90108904	      1.31777007	      0.95095076	      0.13815423	      8.25593817	     -5.46757227	     -2.73014297	      4.56502484	      0.07967471	      1.29286508	      0.78169000	     -6.87623385	      1.44950191	     -5.55526487	     -1.86469678	      3.43887721	      0.06001973	     10.77347357	      0.14380346	     -6.87623385	     12.90818861	      0.80659121	     -7.09705786	     26.76698650	      0.31135514	     39.21485992	    101.36439950	     87.91631998	     35.39810188	      2.87713242	     66.94412679	    117.06157128	     97.76796126
      0.05000000	     -4.79201963	     -1.66005327	      5.19976017	      1.31712250	      0.94986955	      0.13765443	      8.05193260	     -5.94725044	     -2.93308012	      4.70623828	      0.08213935	      2.13193411	      2.12572201	     -7.04789319	      1.32211652	     -5.49449332	     -2.22026562	      3.46250329	      0.06043208	     11.09094467	      0.37163264	     -7.04789319	     13.16774444	      0.79201497	     -8.96783973	     27.89528584	      1.21705231	     40.56170102	     99.89663288	     92.46251857	     35.39098717	      2.23970594	     65.01121334	    117.35995981	    102.43221380
      0.06666670	     -4.75518352	     -1.56191891	      5.18244569	      1.31232605	      0.94892219	      0.14151944	      8.30173579	     -6.15852877	     -2.77139858	      5.22241125	      0.09114827	      2.75845940	      2.54989603	     -7.05441707	      1.39379078	     -5.42601835	     -2.69042681	      3.63195985	      0.06338966	     11.29249736	      0.50202154	     -7.05441707	     13.06783565	      0.58129982	     -9.15730405	     28.25629241	      1.79356256	     40.75065417	     99.28585757	     92.53436024	     35.91927551	      2.15660674	     64.66416254	    116.93613862	    102.32645070
      0.08333330	     -5.20593081	     -1.48120795	      5.24933806	      1.31263176	      0.94835629	      0.14136961	      8.90026761	     -6.35715415	     -2.72181697	      5.56395462	      0.09710933	      2.80698430	      2.47919123	     -7.08712967	      1.98676368	     -5.31583911	     -3.00084362	      3.81435499	      0.06657305	     11.21848533	      0.69004020	     -7.08712967	     13.60865118	      0.33825343	     -9.25182432	     28.26087519	      2.16170459	     40.85300592	     98.64210146	     91.34721744	     36.17007959	      2.03144048	     64.43632216	    116.53405396	    100.63694644
      0.10000000	     -5.16319428	     -1.38682490	      5.33825081	      1.31258857	      0.94819015	      0.14170162	      8.90006114	     -6.46776457	     -2.84521568	      5.76103987	      0.10054911	      2.86744826	      2.38678594	     -7.13173153	      2.02395927	     -5.26238189	     -3.51284993	      3.95558330	      0.06903795	     11.37835698	      1.45423677	     -7.13173153	     13.33367897	      0.16568395	     -9.72408474	     28.52340480	      2.76695349	     41.20425168	     98.15805654	     90.21232585	     36.48282461	      1.49302525	     64.10549931	    117.10949940	     98.94277207
      0.11666670	     -5.56377910	     -1.35766680	      5.43813044	      1.31303721	      0.94569315	      0.14189505	      9.34366413	     -6.53194313	     -2.79808024	      5.89294281	      0.10285125	      2.75825344	      1.91814343	     -7.18987381	      2.58982697	     -5.22463039	     -3.81214907	      4.17979769	      0.07295123	     11.43670791	      1.81905506	     -7.18987381	     13.76460921	     -0.04938375	     -9.88562453	     28.50672557	      3.23125978	     41.09619761	     97.90236003	     87.90278230	     36.68826327	      1.14895729	     63.95111508	    117.24705793	     96.29419526
      0.13333330	     -5.78302201	     -1.31793710	      5.55311200	      1.31301925	      0.94726050	      0.14189939	      9.55912820	     -6.57865823	     -2.80517445	      5.97238509	      0.10423778	      2.68460548	      1.63516892	     -7.22716105	      2.93009922	     -5.18110914	     -4.06724518	      4.33062978	      0.07558375	     11.38001846	      2.17585516	     -7.22716105	     13.90533551	     -0.23242726	     -9.93558243	     28.48239959	      3.45522848	     41.10701138	     97.73876113	     86.54315492	     36.75347053	      0.99224093	     64.18331454	    117.37601975	     94.63873616
      0.15000000	     -5.91018881	     -1.30510165	      5.69472568	      1.31724423	      0.94272136	      0.13806963	      9.59442100	     -6.60745196	     -2.90406770	      5.96498117	      0.10410856	      2.66574257	      1.41728936	     -7.24897073	      3.09420881	     -5.13909336	     -4.25777330	      4.43711954	      0.07744235	     11.35784864	      2.46270424	     -7.24897073	     14.22912349	     -0.30726399	    -10.06239153	     28.54399641	      3.54579072	     40.54772811	     97.88870450	     86.21375741	     36.79576044	      1.37592837	     64.08770320	    117.50743073	     93.85093646
      0.16666670	     -6.03397252	     -1.32852266	      5.76898586	      1.31328835	      0.94400481	      0.14159897	      9.64918913	     -6.55820703	     -2.99301658	      5.90950246	      0.10314028	      2.72361736	      1.29629084	     -7.24985214	      3.29541232	     -5.16281599	     -4.35060539	      4.53943583	      0.07922810	     11.28455675	      2.52174517	     -7.24985214	     14.34827349	     -0.43873254	    -10.03882246	     28.77319335	      3.60355586	     40.37792673	     97.81456155	     86.26810994	     36.99348834	      1.45716589	     64.03613084	    117.54524373	     93.87960501
      0.18333330	     -6.49491311	     -1.36239748	      5.91807548	      1.31782068	      0.94497596	      0.13824021	     10.07058229	     -6.56805851	     -2.94860580	      5.96794144	      0.10416023	      2.63488834	      0.90635939	     -7.25773221	      3.84180673	     -5.14916800	     -4.52042673	      4.67465860	      0.08158818	     11.38370378	      2.94192651	     -7.25773221	     15.07976680	     -0.55966887	    -10.12067198	     28.17924772	      3.56443724	     39.67036762	     97.58313952	     86.72693125	     36.64061300	      1.50075849	     64.26355485	    117.41015151	     94.08446930
      0.20000000	     -6.66569037	     -1.37601092	      6.05610822	      1.31784304	      0.94458180	      0.13847339	     10.12526908	     -6.55391935	     -3.01701954	      5.88352365	      0.10268686	      2.68619171	      0.75795759	     -7.28381388	      4.02620354	     -5.12844484	     -4.57298275	      4.71816284	      0.08234748	     11.34540858	      3.09266351	     -7.28381388	     15.33484810	     -0.68466327	    -10.18089872	     27.79069198	      3.46217129	     39.41213954	     97.66373620	     86.13740423	     36.40930908	      1.41029013	     64.35453833	    117.25085567	     92.99540983
      0.21666670	     -6.90238347	     -1.40094073	      6.17235662	      1.31831151	      0.94247201	      0.13850078	     10.28209265	     -6.53546095	     -3.03321056	      5.84517723	      0.10201759	      2.79298477	      0.59183216	     -7.32616140	      4.30058467	     -5.11827259	     -4.62049615	      4.80958397	      0.08394308	     11.39408918	      3.22873497	     -7.32616140	     15.71086164	     -0.81477352	    -10.25647215	     27.59160502	      3.41771552	     39.16207906	     97.80678655	     84.04735953	     36.35720327	      1.34826334	     64.42899358	    117.28239015	     90.33983823
      0.23333330	     -7.07887891	     -1.44303008	      6.28283537	      1.31808749	      0.94128583	      0.13820940	     10.39586920	     -6.50106732	     -3.10800416	      5.84161030	      0.10195533	      2.85963913	      0.47379842	     -7.36939301	      4.51350424	     -5.13293299	     -4.67780703	      4.88390997	      0.08524031	     11.38987960	      3.36788806	     -7.36939301	     15.97124469	     -0.86344334	    -10.41490512	     27.57762570	      3.48754207	     38.84668447	     97.72377732	     89.18793478	     36.53904906	      1.35673247	     64.26671226	    117.38883710	     94.04335020
      0.25000000	     -7.08350399	     -1.40069019	      6.34150517	      1.32227582	      0.94198277	      0.13441512	     10.30381546	     -6.56375211	     -3.08306040	      5.82608074	      0.10168429	      2.93910658	      0.44368829	     -7.36959113	      4.47368149	     -5.05223913	     -4.71652130	      4.90407611	      0.08559227	     11.35001886	      3.37567754	     -7.36959113	     16.09894171	     -0.80979044	    -10.57525320	     27.44295220	      3.37781298	     38.85227821	     97.74295489	     89.18701370	     36.46201662	      1.47940765	     64.27797372	    117.35618887	     94.04164170
      0.26666670	     -7.14291317	     -1.45054877	      6.38649287	      1.31846513	      0.93937901	      0.13855135	     10.28645386	     -6.46949026	     -3.14190528	      5.73788072	      0.10014491	      3.07275894	      0.37102978	     -7.36983795	      4.53272141	     -5.09510112	     -4.71182052	      4.92543905	      0.08596513	     11.36111853	      3.39181651	     -7.36983795	     16.25311684	     -0.94024247	    -10.57641617	     27.50631164	      3.45487980	     38.83324254	     97.78459243	     89.18189364	     36.48949551	      1.61498332	     64.23287912	    117.35805185	     94.03520189
      0.28333330	     -7.67429691	     -1.52192348	      6.49979528	      1.31898564	      0.93906093	      0.13815386	     10.81254303	     -6.45784294	     -3.21278860	      5.76026522	      0.10053559	      3.08741134	      0.20329654	     -7.38778396	      5.22796053	     -5.10490343	     -4.57519866	      5.14548428	      0.08980564	     11.43177351	      3.39736930	     -7.38778396	     17.02984802	     -1.07568828	    -10.60238312	     27.24916869	      3.47976546	     38.49139809	     97.80491508	     87.20908826	     36.33626812	      1.79055376	     64.00315116	    116.91401677	     91.89213860
      0.30000000	     -7.81141962	     -1.55765946	      6.52108960	      1.31894337	      0.93903241	      0.13841410	     10.95071977	     -6.41646524	     -3.21275853	      5.76242050	      0.10057321	      3.14892372	      0.17526641	     -7.39839112	      5.39762233	     -5.13354167	     -4.57914283	      5.21397071	      0.09100096	     11.47276152	      3.44328315	     -7.39839112	     17.22362273	     -1.14066783	    -10.55105048	     27.19539573	      3.48961607	     38.43938920	     97.76245887	     86.12835449	     36.34588861	      1.76506103	     63.96976013	    116.67896878	     90.70374301
